<svg width="39" height="33" viewBox="0 0 39 33" fill="none" xmlns="http://www.w3.org/2000/svg">
<path d="M7.875 29.4375C7.875 30.211 8.24375 30.9529 8.90013 31.4999C9.5565 32.0469 10.4467 32.3542 11.375 32.3542C12.3033 32.3542 13.1935 32.0469 13.8499 31.4999C14.5063 30.9529 14.875 30.211 14.875 29.4375M20.125 29.4375C20.125 30.211 20.4937 30.9529 21.1501 31.4999C21.8065 32.0469 22.6967 32.3542 23.625 32.3542C24.5533 32.3542 25.4435 32.0469 26.0999 31.4999C26.7563 30.9529 27.125 30.211 27.125 29.4375M10.5 9.75H37.625V10.1146L37.2067 10.5273C32.9555 14.7346 30.6245 20.0581 30.625 25.5583V25.7917H7.875V23.05C7.875 20.0167 7.7595 16.9862 7.1995 13.9908C6.23 8.805 4.08975 1 0 1" stroke="white"/>
</svg>
