<svg width="39" height="34" viewBox="0 0 39 34" fill="none" xmlns="http://www.w3.org/2000/svg">
<path d="M8.625 29.625C8.625 30.3985 8.99375 31.1404 9.65013 31.6874C10.3065 32.2344 11.1967 32.5417 12.125 32.5417C13.0533 32.5417 13.9435 32.2344 14.5999 31.6874C15.2563 31.1404 15.625 30.3985 15.625 29.625M20.875 29.625C20.875 30.3985 21.2437 31.1404 21.9001 31.6874C22.5565 32.2344 23.4467 32.5417 24.375 32.5417C25.3033 32.5417 26.1935 32.2344 26.8499 31.6874C27.5063 31.1404 27.875 30.3985 27.875 29.625M11.25 9.9375H38.375V10.3021L37.9567 10.7148C33.7055 14.9221 31.3745 20.2456 31.375 25.7458V25.9792H8.625V23.2375C8.625 20.2042 8.5095 17.1737 7.9495 14.1783C6.98 8.9925 4.83975 1.1875 0.75 1.1875" stroke="black"/>
</svg>
